<?xml version="1.0" standalone="no"?>
<svg version="1.0" xmlns="http://www.w3.org/2000/svg"
 width="3840" height="2160" viewBox="0 0 3840 2160"
 preserveAspectRatio="xMidYMid meet" aria-label="Galeria Holding">
<g transform="translate(0,2160) scale(0.1,-0.1)"
fill="currentColor" stroke="none">
<path d="M7814 15725 c-172 -22 -306 -52 -464 -104 -316 -106 -580 -265 -817
-494 -186 -180 -308 -349 -428 -592 -195 -394 -291 -855 -279 -1330 11 -457
101 -847 279 -1210 118 -240 242 -412 425 -588 370 -358 863 -543 1415 -532
369 8 685 91 954 250 71 43 124 83 322 244 l29 24 0 -207 0 -206 455 0 454 0
-2 1278 -2 1277 -1000 0 -1000 0 -3 -437 -2 -438 515 0 c283 0 515 -3 515 -7
0 -29 -34 -195 -51 -251 -70 -224 -223 -391 -462 -502 -414 -192 -1002 -94
-1318 220 -183 183 -297 460 -355 863 -23 156 -23 494 -1 647 87 589 378 989
808 1110 168 47 395 63 565 39 178 -24 381 -107 515 -209 112 -85 275 -271
355 -406 10 -17 24 -11 170 77 465 280 700 423 708 430 19 17 -245 323 -386
446 -386 337 -779 523 -1268 598 -144 23 -500 28 -646 10z"/>
<path d="M12032 15553 c-9 -26 -144 -391 -750 -2023 -115 -311 -374 -1009
-576 -1552 -201 -542 -366 -989 -366 -992 0 -3 276 -6 613 -6 l612 0 110 356
c60 195 112 359 115 365 4 5 333 9 851 9 l844 1 92 -293 c50 -161 101 -326
113 -365 l22 -73 615 0 c582 0 615 1 608 18 -3 9 -308 836 -677 1837 -368
1001 -746 2026 -839 2279 -93 252 -169 460 -169 462 0 2 -272 4 -604 4 l-604
0 -10 -27z m893 -2043 c157 -508 288 -933 291 -945 5 -20 5 -20 -573 -17 -544
2 -578 3 -575 20 4 15 174 601 466 1601 47 161 86 296 87 300 2 19 44 -113
304 -959z"/>
<path d="M15110 13280 l0 -2300 1475 0 1475 0 0 485 0 485 -900 0 -900 0 0
1815 0 1815 -575 0 -575 0 0 -2300z"/>
<path d="M18330 13280 l0 -2300 1806 2 1805 3 0 450 0 450 -1231 3 -1230 2 0
545 0 545 1053 0 1052 0 0 432 c0 277 -4 436 -10 440 -8 6 -917 9 -2083 8 -10
0 -12 86 -10 415 l3 415 1125 3 1125 2 2 443 2 442 -1704 0 -1705 0 0 -2300z"/>
<path d="M22200 13280 l0 -2300 580 0 580 0 0 820 0 820 358 0 358 0 214 -382
c117 -211 271 -484 340 -608 70 -124 180 -321 245 -437 l119 -213 634 0 634 0
-24 43 c-13 23 -69 119 -123 212 -90 155 -168 290 -390 675 -230 399 -490 849
-506 876 l-18 30 97 38 c246 97 375 179 521 331 223 232 323 513 322 901 0
243 -30 409 -107 612 -66 171 -144 298 -261 422 -182 194 -405 320 -694 394
-256 65 -276 66 -1647 66 l-1232 0 0 -2300z m2374 1427 c103 -25 189 -69 255
-132 114 -109 162 -246 161 -460 0 -153 -13 -216 -70 -331 -67 -137 -190 -230
-370 -281 -59 -16 -114 -18 -630 -18 -532 0 -565 1 -564 18 1 9 2 290 3 623
l1 606 573 -5 c483 -3 583 -7 641 -20z"/>
<path d="M26560 13280 l0 -2300 575 0 575 0 0 2300 0 2300 -575 0 -575 0 0
-2300z"/>
<path d="M29566 15571 c-4 -5 -78 -204 -167 -443 -88 -238 -234 -631 -324
-873 -386 -1040 -541 -1457 -835 -2250 -172 -462 -327 -882 -346 -932 l-34
-93 615 0 614 0 26 83 c13 45 64 209 112 365 l88 282 844 1 c614 0 846 -3 851
-12 4 -6 56 -170 116 -365 l109 -354 614 0 c579 0 613 1 609 18 -4 13 -829
2257 -1578 4287 l-107 290 -601 3 c-356 1 -603 -2 -606 -7z m877 -2041 c158
-511 290 -942 293 -957 l6 -28 -576 0 c-377 0 -576 3 -576 10 0 6 106 372 235
815 130 443 254 869 277 948 22 78 44 142 48 142 3 0 135 -418 293 -930z"/>
<path d="M12420 10689 c-250 -18 -501 -74 -713 -160 -871 -356 -1409 -1302
-1355 -2383 41 -835 396 -1524 988 -1920 208 -139 493 -258 750 -311 314 -66
696 -70 1015 -10 576 107 1065 438 1395 945 83 128 210 388 260 535 179 522
196 1017 55 1560 -163 626 -464 1083 -912 1381 -396 264 -954 400 -1483 363z
m409 -975 c327 -66 586 -262 735 -554 142 -278 207 -590 200 -956 -9 -472
-143 -829 -405 -1080 -122 -116 -243 -189 -407 -244 -117 -39 -204 -52 -347
-52 -553 2 -973 400 -1095 1039 -30 159 -39 274 -35 473 6 317 56 540 176 785
169 345 451 555 814 604 89 12 265 5 364 -15z"/>
<path d="M6202 8273 l3 -2278 570 0 570 0 3 973 2 972 830 0 830 0 0 -975 0
-975 561 1 c308 0 567 3 575 6 12 4 14 312 14 2279 l0 2274 -575 0 -575 0 0
-820 0 -820 -825 2 -825 3 -1 818 0 817 -579 0 -580 0 2 -2277z"/>
<path d="M15112 8273 l3 -2278 1430 -3 c787 -1 1440 0 1453 3 l22 5 0 480 0
480 -885 0 -885 0 -1 1763 c-1 969 -2 1776 -3 1792 l-1 30 -568 3 -567 2 2
-2277z"/>
<path d="M18252 8273 l3 -2278 935 0 c514 0 1005 3 1090 7 512 24 943 172
1297 445 427 329 682 872 743 1581 5 53 7 205 5 337 -3 232 -15 360 -49 538
-92 477 -330 897 -656 1157 -356 283 -796 434 -1399 480 -78 6 -525 10 -1053
10 l-918 0 2 -2277z m2090 1288 c242 -53 392 -137 552 -310 140 -150 231 -362
271 -631 22 -144 22 -503 0 -665 -84 -631 -387 -938 -1006 -1020 -122 -16
-687 -33 -732 -21 l-27 6 0 1336 0 1336 423 -5 c383 -4 431 -7 519 -26z"/>
<path d="M22500 8276 c0 -2005 2 -2274 15 -2279 8 -4 263 -5 567 -4 l553 2 3
2278 2 2277 -570 0 -570 0 0 -2274z"/>
<path d="M23880 8271 l0 -2280 548 2 547 2 0 185 c0 238 -15 1431 -20 1620
-11 412 -16 1004 -8 995 5 -5 99 -163 208 -350 109 -187 264 -452 345 -590 81
-137 234 -398 340 -580 107 -181 270 -460 363 -620 94 -159 217 -371 275 -470
58 -99 110 -183 116 -187 6 -4 259 -6 561 -5 l550 2 3 2278 2 2277 -550 0
-550 0 5 -57 c2 -32 7 -294 10 -583 3 -289 8 -604 10 -700 3 -96 7 -339 10
-540 3 -201 8 -500 11 -665 5 -261 4 -297 -9 -280 -11 16 -691 1181 -1070
1835 -50 85 -116 200 -149 255 -32 55 -141 242 -242 415 l-184 315 -561 3
-561 2 0 -2279z"/>
<path d="M30000 9365 l0 -1015 423 2 422 3 0 518 c0 338 3 517 10 517 21 0
172 -31 225 -46 277 -79 499 -346 572 -689 24 -117 30 -329 13 -459 -39 -280
-147 -511 -319 -681 -178 -176 -433 -285 -796 -341 -218 -33 -577 -23 -780 22
-448 101 -787 361 -909 700 -57 156 -74 268 -75 474 -1 200 10 275 60 427 77
228 237 434 462 593 51 35 92 68 92 71 0 4 -50 94 -111 201 -271 471 -383 664
-390 672 -10 11 -52 -20 -193 -143 -290 -253 -527 -590 -670 -953 -191 -484
-226 -1063 -97 -1577 78 -309 246 -641 445 -880 418 -501 1096 -792 1851 -794
213 -1 319 7 510 39 664 112 1212 450 1520 939 124 198 220 441 269 685 82
408 44 876 -101 1240 -72 181 -148 309 -282 473 -39 48 -71 90 -71 94 0 5 78
7 172 6 95 -1 185 1 201 4 l27 5 -1 454 -1 454 -1239 0 -1239 0 0 -1015z"/>
</g>
</svg>
