<?xml version="1.0" standalone="no"?>
<svg version="1.0" xmlns="http://www.w3.org/2000/svg"
 width="1362" height="308" viewBox="0 0 1362 308"
 preserveAspectRatio="xMidYMid meet" aria-label="Galeria">
<g transform="translate(0,308) scale(0.1,-0.1)"
fill="currentColor" stroke="none">
<path d="M1320 3069 c-330 -42 -619 -187 -865 -434 -178 -177 -298 -367 -373
-590 -209 -614 1 -1332 502 -1719 321 -248 739 -360 1181 -317 585 57 1013
333 1259 811 62 121 147 351 161 437 20 125 25 11 25 -571 l0 -626 220 0 220
0 0 1480 0 1480 -271 -2 -272 -3 -519 -757 -520 -758 -444 0 -444 0 0 -200 0
-200 304 -2 305 -3 -230 -334 c-126 -184 -231 -336 -233 -338 -8 -8 -197 60
-270 97 -165 85 -317 218 -415 364 -394 583 -201 1374 409 1681 177 89 333
121 544 112 279 -11 564 -125 772 -307 47 -41 60 -48 70 -38 7 7 63 83 124
168 l112 155 -49 43 c-129 114 -342 235 -508 291 -227 76 -565 110 -795 80z
m1887 -1566 c-2 -2 -141 -2 -309 -1 l-305 3 306 478 306 477 3 -476 c1 -263 1
-479 -1 -481z m-537 -413 c0 -18 -71 -152 -111 -212 -124 -181 -330 -333 -559
-411 -161 -54 -161 -67 0 169 78 115 181 266 228 337 l85 127 179 0 c115 0
178 -4 178 -10z"/>
<path d="M6430 3069 c-315 -40 -587 -159 -827 -360 -308 -259 -495 -624 -534
-1043 -32 -347 71 -722 281 -1018 431 -609 1259 -820 1935 -493 311 151 544
381 705 696 33 64 60 122 60 128 0 8 -72 11 -229 11 l-228 0 -59 -92 c-67
-106 -169 -218 -264 -290 -90 -69 -246 -143 -365 -175 -91 -24 -117 -27 -290
-27 -169 -1 -200 2 -280 23 -314 82 -550 271 -698 558 -43 84 -97 227 -112
301 l-7 32 1310 0 c1127 0 1311 2 1315 14 14 36 18 240 8 346 -22 211 -58 344
-146 527 -74 155 -161 279 -285 404 -163 165 -323 274 -526 355 -233 94 -527
134 -764 103z m462 -422 c192 -50 359 -149 496 -291 152 -159 253 -348 306
-575 l14 -61 -1098 0 -1098 0 14 63 c107 467 438 799 877 883 118 22 369 12
489 -19z"/>
<path d="M3820 1540 l0 -1480 735 0 735 0 0 195 0 195 -515 0 -515 0 0 1285 0
1285 -220 0 -220 0 0 -1480z"/>
<path d="M8310 1540 l0 -1480 220 0 220 0 2 685 3 685 56 -77 c31 -43 250
-351 488 -685 l433 -608 269 0 c148 0 269 2 269 4 0 2 -184 248 -410 547
l-410 544 43 8 c156 28 237 51 313 86 351 165 524 489 485 910 -25 277 -93
442 -246 597 -97 98 -200 161 -334 203 -180 57 -230 61 -843 61 l-558 0 0
-1480z m1004 1080 c275 -32 473 -183 531 -405 18 -69 20 -202 4 -277 -31 -150
-131 -274 -279 -346 -156 -77 -311 -102 -631 -102 l-189 0 0 570 0 570 238 0
c130 0 277 -5 326 -10z"/>
<path d="M10440 1540 l0 -1480 215 0 215 0 0 1480 0 1480 -215 0 -215 0 0
-1480z"/>
<path d="M11040 1540 l0 -1480 220 0 220 0 0 435 0 435 507 -2 508 -3 295
-432 295 -432 263 -1 c144 0 262 2 262 5 0 3 -104 157 -232 343 -128 185 -268
389 -311 452 -43 63 -394 574 -780 1135 l-702 1020 -273 3 -272 2 0 -1480z
m814 352 c196 -304 356 -555 356 -557 0 -3 -164 -5 -365 -5 l-365 0 0 567 c0
346 4 563 9 558 5 -6 170 -259 365 -563z"/>
</g>
</svg>
